<svg width="20" height="19" viewBox="0 0 20 19" fill="none" xmlns="http://www.w3.org/2000/svg">
<path d="M15.225 9.55C13.9083 9.55 12.7833 9.08333 11.85 8.15C10.9167 7.21667 10.45 6.09167 10.45 4.775C10.45 3.45833 10.9167 2.33333 11.85 1.4C12.7833 0.466667 13.9083 0 15.225 0C16.5583 0 17.6875 0.4625 18.6125 1.3875C19.5375 2.3125 20 3.44167 20 4.775C20 6.10833 19.5333 7.2375 18.6 8.1625C17.6667 9.0875 16.5417 9.55 15.225 9.55ZM14.85 5.525H15.725V1.95H14.85V5.525ZM0.75 19C0.533333 19 0.354167 18.9292 0.2125 18.7875C0.0708334 18.6458 0 18.4667 0 18.25V10.15L2.125 3.75C2.20833 3.51667 2.34583 3.33333 2.5375 3.2C2.72917 3.06667 2.95 3 3.2 3H8.525C8.45833 3.23333 8.40833 3.475 8.375 3.725C8.34167 3.975 8.31667 4.23333 8.3 4.5H3.45L2.075 8.65H9.5C9.68333 8.93333 9.89167 9.2 10.125 9.45C10.3583 9.7 10.6083 9.93333 10.875 10.15H1.5V15.4H16.5V11.575C16.7667 11.525 17.025 11.4625 17.275 11.3875C17.525 11.3125 17.7667 11.225 18 11.125V18.25C18 18.4667 17.9292 18.6458 17.7875 18.7875C17.6458 18.9292 17.4667 19 17.25 19H16.725C16.5083 19 16.3333 18.9292 16.2 18.7875C16.0667 18.6458 16 18.4667 16 18.25V16.9H2V18.25C2 18.4667 1.92917 18.6458 1.7875 18.7875C1.64583 18.9292 1.46667 19 1.25 19H0.75ZM15.3 7.65C15.45 7.65 15.5792 7.6 15.6875 7.5C15.7958 7.4 15.85 7.26667 15.85 7.1C15.85 6.93333 15.7958 6.8 15.6875 6.7C15.5792 6.6 15.45 6.55 15.3 6.55C15.1167 6.56667 14.9792 6.625 14.8875 6.725C14.7958 6.825 14.75 6.95 14.75 7.1C14.75 7.26667 14.8 7.4 14.9 7.5C15 7.6 15.1333 7.65 15.3 7.65ZM4.15 14.15C4.53333 14.15 4.85417 14.0167 5.1125 13.75C5.37083 13.4833 5.5 13.1667 5.5 12.8C5.5 12.4167 5.37083 12.0875 5.1125 11.8125C4.85417 11.5375 4.53333 11.4 4.15 11.4C3.76667 11.4 3.4375 11.5375 3.1625 11.8125C2.8875 12.0875 2.75 12.4167 2.75 12.8C2.75 13.1833 2.8875 13.5042 3.1625 13.7625C3.4375 14.0208 3.76667 14.15 4.15 14.15ZM13.875 14.15C14.2583 14.15 14.5875 14.0167 14.8625 13.75C15.1375 13.4833 15.275 13.1667 15.275 12.8C15.275 12.5667 15.2292 12.3542 15.1375 12.1625C15.0458 11.9708 14.9083 11.8083 14.725 11.675C14.5083 11.6583 14.2917 11.6333 14.075 11.6C13.8583 11.5667 13.65 11.525 13.45 11.475C13.1667 11.5583 12.9417 11.7208 12.775 11.9625C12.6083 12.2042 12.525 12.4833 12.525 12.8C12.525 13.1667 12.6583 13.4833 12.925 13.75C13.1917 14.0167 13.5083 14.15 13.875 14.15ZM1.5 15.4V10.15V15.4Z" fill="#64748B"/>
</svg>
