<svg width="19" height="19" viewBox="0 0 19 19" fill="none" xmlns="http://www.w3.org/2000/svg">
<path d="M1.5 17.4998H2.6L13.675 6.4248L12.575 5.3248L1.5 16.3998V17.4998ZM16.85 5.3498L13.65 2.1498L14.7 1.0998C14.9833 0.816471 15.3333 0.674805 15.75 0.674805C16.1667 0.674805 16.5167 0.816471 16.8 1.0998L17.9 2.1998C18.1833 2.48314 18.325 2.83314 18.325 3.2498C18.325 3.66647 18.1833 4.01647 17.9 4.2998L16.85 5.3498ZM15.8 6.3998L3.2 18.9998H0V15.7998L12.6 3.1998L15.8 6.3998ZM13.125 5.8748L12.575 5.3248L13.675 6.4248L13.125 5.8748Z" fill="#64748B"/>
</svg>
