<svg width="20" height="16" viewBox="0 0 20 16" fill="none" xmlns="http://www.w3.org/2000/svg">
<path d="M8.175 11.8754C8.55833 12.2587 9.1125 12.4379 9.8375 12.4129C10.5625 12.3879 11.0917 12.1171 11.425 11.6004L16.825 3.12539L8.45 8.60039C7.95 8.93372 7.68333 9.46706 7.65 10.2004C7.61667 10.9337 7.79167 11.4921 8.175 11.8754ZM9.95 0.0253906C10.9 0.0253906 11.8917 0.179557 12.925 0.487891C13.9583 0.796224 14.95 1.32539 15.9 2.07539L14.6 3.00039C13.85 2.50039 13.0458 2.12956 12.1875 1.88789C11.3292 1.64622 10.5833 1.52539 9.95 1.52539C7.61667 1.52539 5.625 2.35872 3.975 4.02539C2.325 5.69206 1.5 7.71706 1.5 10.1004C1.5 10.8504 1.60417 11.6087 1.8125 12.3754C2.02083 13.1421 2.31667 13.8504 2.7 14.5004H17.175C17.5417 13.9004 17.8333 13.2004 18.05 12.4004C18.2667 11.6004 18.375 10.8171 18.375 10.0504C18.375 9.35039 18.2708 8.59622 18.0625 7.78789C17.8542 6.97956 17.4833 6.23372 16.95 5.55039L17.925 4.25039C18.5583 5.18372 19.0333 6.12122 19.35 7.06289C19.6667 8.00456 19.8417 8.95039 19.875 9.90039C19.9083 10.9004 19.8083 11.8421 19.575 12.7254C19.3417 13.6087 19 14.4254 18.55 15.1754C18.35 15.5587 18.1375 15.7921 17.9125 15.8754C17.6875 15.9587 17.4083 16.0004 17.075 16.0004H2.8C2.51667 16.0004 2.2375 15.9296 1.9625 15.7879C1.6875 15.6462 1.48333 15.4421 1.35 15.1754C0.916667 14.3754 0.583333 13.5629 0.35 12.7379C0.116667 11.9129 0 11.0337 0 10.1004C0 8.71706 0.2625 7.41289 0.7875 6.18789C1.3125 4.96289 2.025 3.89622 2.925 2.98789C3.825 2.07956 4.87917 1.35872 6.0875 0.82539C7.29583 0.292057 8.58333 0.0253906 9.95 0.0253906Z" fill="#64748B"/>
</svg>
